<?xml version="1.0" standalone="no"?>
<svg xmlns:xlink="http://www.w3.org/1999/xlink" id="wave" style="transform:rotate(180deg); transition: 0.3s" viewBox="0 0 1440 230" version="1.1" xmlns="http://www.w3.org/2000/svg"><defs><linearGradient id="sw-gradient-0" x1="0" x2="0" y1="1" y2="0"><stop stop-color="rgba(69, 42, 121, 1)" offset="0%"/><stop stop-color="rgba(69, 42, 121, 1)" offset="100%"/></linearGradient></defs><path style="transform:translate(0, 0px); opacity:1" fill="url(#sw-gradient-0)" d="M0,138L60,115C120,92,240,46,360,34.5C480,23,600,46,720,80.5C840,115,960,161,1080,164.8C1200,169,1320,130,1440,103.5C1560,77,1680,61,1800,76.7C1920,92,2040,138,2160,130.3C2280,123,2400,61,2520,30.7C2640,0,2760,0,2880,19.2C3000,38,3120,77,3240,107.3C3360,138,3480,161,3600,164.8C3720,169,3840,153,3960,145.7C4080,138,4200,138,4320,141.8C4440,146,4560,153,4680,145.7C4800,138,4920,115,5040,103.5C5160,92,5280,92,5400,107.3C5520,123,5640,153,5760,168.7C5880,184,6000,184,6120,176.3C6240,169,6360,153,6480,130.3C6600,107,6720,77,6840,53.7C6960,31,7080,15,7200,19.2C7320,23,7440,46,7560,76.7C7680,107,7800,146,7920,161C8040,176,8160,169,8280,157.2C8400,146,8520,130,8580,122.7L8640,115L8640,230L8580,230C8520,230,8400,230,8280,230C8160,230,8040,230,7920,230C7800,230,7680,230,7560,230C7440,230,7320,230,7200,230C7080,230,6960,230,6840,230C6720,230,6600,230,6480,230C6360,230,6240,230,6120,230C6000,230,5880,230,5760,230C5640,230,5520,230,5400,230C5280,230,5160,230,5040,230C4920,230,4800,230,4680,230C4560,230,4440,230,4320,230C4200,230,4080,230,3960,230C3840,230,3720,230,3600,230C3480,230,3360,230,3240,230C3120,230,3000,230,2880,230C2760,230,2640,230,2520,230C2400,230,2280,230,2160,230C2040,230,1920,230,1800,230C1680,230,1560,230,1440,230C1320,230,1200,230,1080,230C960,230,840,230,720,230C600,230,480,230,360,230C240,230,120,230,60,230L0,230Z"/></svg>