ad<?xml version="1.0" standalone="no"?>
<svg xmlns:xlink="http://www.w3.org/1999/xlink" id="wave" style="transform:rotate(180deg); transition: 0.3s" viewBox="0 0 1440 490" version="1.1" xmlns="http://www.w3.org/2000/svg"><defs><linearGradient id="sw-gradient-0" x1="0" x2="0" y1="1" y2="0"><stop stop-color="rgba(69, 42, 121, 1)" offset="0%"/><stop stop-color="rgba(69, 42, 121, 1)" offset="100%"/></linearGradient></defs><path style="transform:translate(0, 0px); opacity:1" fill="url(#sw-gradient-0)" d="M0,294L60,245C120,196,240,98,360,73.5C480,49,600,98,720,171.5C840,245,960,343,1080,351.2C1200,359,1320,278,1440,220.5C1560,163,1680,131,1800,163.3C1920,196,2040,294,2160,277.7C2280,261,2400,131,2520,65.3C2640,0,2760,0,2880,40.8C3000,82,3120,163,3240,228.7C3360,294,3480,343,3600,351.2C3720,359,3840,327,3960,310.3C4080,294,4200,294,4320,302.2C4440,310,4560,327,4680,310.3C4800,294,4920,245,5040,220.5C5160,196,5280,196,5400,228.7C5520,261,5640,327,5760,359.3C5880,392,6000,392,6120,375.7C6240,359,6360,327,6480,277.7C6600,229,6720,163,6840,114.3C6960,65,7080,33,7200,40.8C7320,49,7440,98,7560,163.3C7680,229,7800,310,7920,343C8040,376,8160,359,8280,334.8C8400,310,8520,278,8580,261.3L8640,245L8640,490L8580,490C8520,490,8400,490,8280,490C8160,490,8040,490,7920,490C7800,490,7680,490,7560,490C7440,490,7320,490,7200,490C7080,490,6960,490,6840,490C6720,490,6600,490,6480,490C6360,490,6240,490,6120,490C6000,490,5880,490,5760,490C5640,490,5520,490,5400,490C5280,490,5160,490,5040,490C4920,490,4800,490,4680,490C4560,490,4440,490,4320,490C4200,490,4080,490,3960,490C3840,490,3720,490,3600,490C3480,490,3360,490,3240,490C3120,490,3000,490,2880,490C2760,490,2640,490,2520,490C2400,490,2280,490,2160,490C2040,490,1920,490,1800,490C1680,490,1560,490,1440,490C1320,490,1200,490,1080,490C960,490,840,490,720,490C600,490,480,490,360,490C240,490,120,490,60,490L0,490Z"/></svg>